#!OML:ASF H:\Male1\Project 1\Capture day 1\Session 1\Male1.ASF
:FULLY-SPECIFIED
:DEGREES
177
root 33.3831 15.2498 1.08578 -6.81129 107.887 -5.19884
lowerback 4.66259 6.93127 3.9023
upperback 2.84456 9.49524 -2.45272
thorax 1.40315 4.89824 -4.9219
lowerneck 9.62262 18.7437 22.3144
upperneck 0.630453 27.3477 -13.294
head 3.45098 13.9452 -6.0256
rclavicle 4.84538e-015 1.68967e-014
rhumerus -52.2204 -6.3871 -79.2601
rradius 47.0505
rwrist -31.2504
rhand -31.3035 5.41712
rfingers 7.12502
rthumb -4.5762 -24.5135
lclavicle 4.84538e-015 1.68967e-014
lhumerus -28.8222 7.71514 74.5969
lradius 19.3467
lwrist -8.68653
lhand -18.3243 8.90146
lfingers 7.12502
lthumb 7.95738 38.7317
rfemur -8.14538 14.2003 24.4459
rtibia 34.8164
rfoot -42.3179 -32.5567
rtoes -2.45819
lfemur -13.1807 -23.7248 -21.3367
ltibia 33.8455
lfoot -21.6686 9.52989
ltoes -14.6697
178
root 33.3804 15.2529 1.08106 -7.08334 107.774 -5.66686
lowerback 4.54853 6.8867 3.7597
upperback 2.83653 9.42674 -2.48512
thorax 1.43201 4.86187 -4.86377
lowerneck 9.58764 18.7145 22.4128
upperneck 0.554672 27.3139 -13.527
head 3.47526 13.9286 -6.10067
rclavicle 2.59166e-014 -4.17448e-015
rhumerus -52.1539 -6.34443 -79.2189
rradius 46.9327
rwrist -31.1992
rhand -31.1335 5.13318
rfingers 7.12502
rthumb -4.412 -24.8009
lclavicle 2.59166e-014 -4.17448e-015
lhumerus -28.9942 7.90167 74.6854
lradius 19.5668
lwrist -8.43063
lhand -18.422 8.96865
lfingers 7.12502
lthumb 7.86303 38.8024
rfemur -8.43067 14.1636 24.2087
rtibia 34.9219
rfoot -42.0802 -32.5092
rtoes -2.44364
lfemur -13.3245 -23.7189 -21.4223
ltibia 33.778
lfoot -21.1802 9.64935
ltoes -14.9415
179
root 33.3815 15.256 1.07747 -7.0564 107.671 -5.76598
lowerback 4.52886 6.95011 3.77494
upperback 2.83626 9.50969 -2.44626
thorax 1.44785 4.90279 -4.82932
lowerneck 9.32356 18.6097 22.2653
upperneck 0.658256 27.1197 -13.6246
head 3.51085 13.826 -6.10954
rclavicle -4.32108e-014 3.02153e-014
rhumerus -52.204 -6.59271 -78.9254
rradius 46.9211
rwrist -31.2202
rhand -30.959 5.09029
rfingers 7.12502
rthumb -4.24353 -24.8472
lclavicle -4.32108e-014 3.02153e-014
lhumerus -29.1026 7.49207 75.1505
lradius 19.9321
lwrist -8.0915
lhand -18.4395 8.85571
lfingers 7.12502
lthumb 7.84619 38.6901
rfemur -8.61705 14.2018 24.1376
rtibia 34.9774
rfoot -41.8808 -32.5896
rtoes -2.72381
lfemur -13.4138 -23.7074 -21.4048
ltibia 33.7054
lfoot -21.5115 9.55614
ltoes -12.8539
180
root 33.3844 15.257 1.07618 -7.19682 107.614 -6.00817
lowerback 4.30809 6.74333 3.46625
upperback 2.8906 9.21509 -2.37443
thorax 1.53063 4.74995 -4.55763
lowerneck 9.5508 18.6828 22.412
upperneck 0.45867 27.2784 -13.9895
head 3.51598 13.9139 -6.22933
rclavicle 3.71976e-014 -3.37934e-015
rhumerus -51.9549 -6.10534 -79.0431
rradius 46.8099
rwrist -31.1637
rhand -30.7132 5.08921
rfingers 7.12502
rthumb -4.00623 -24.8529
lclavicle 3.71976e-014 -3.37934e-015
lhumerus -29.4787 7.45348 75.3523
lradius 20.5696
lwrist -7.37113
lhand -18.5376 8.54226
lfingers 7.12502
lthumb 7.75149 38.3802
rfemur -8.72686 14.3952 24.0716
rtibia 35.0266
rfoot -41.9892 -32.6477
rtoes -2.71427
lfemur -13.4824 -23.6384 -21.4453
ltibia 33.6584
lfoot -21.3784 9.60291
ltoes -12.9783
181
root 33.3867 15.2602 1.07558 -7.70849 107.519 -6.59307
lowerback 4.20877 6.64493 3.17914
upperback 2.95803 9.07335 -2.35133
thorax 1.59086 4.67587 -4.36236
lowerneck 9.60631 18.6819 22.2885
upperneck 0.270581 27.2677 -14.1633
head 3.45928 13.9098 -6.28261
rclavicle 2.11457e-014 -3.18055e-015
rhumerus -51.7569 -5.94421 -79.001
rradius 46.7544
rwrist -30.9425
rhand -30.3225 4.5553
rfingers 7.12502
rthumb -3.62892 -25.3936
lclavicle 2.11457e-014 -3.18055e-015
lhumerus -29.6879 6.99967 75.8143
lradius 21.3219
lwrist -6.52682
lhand -18.647 8.81865
lfingers 7.12502
lthumb 7.64588 38.6604
rfemur -8.7597 14.6247 23.9195
rtibia 35.0597
rfoot -42.1717 -32.5544
rtoes -2.41784
lfemur -13.4286 -23.9589 -21.65
ltibia 33.5955
lfoot -21.0157 10.1086
ltoes -13.4596
